# xmcd
#
# Track frame offsets: 
#        150
#        16664
#        38679
#        58266
#        74556
#        89698
#        105917
#        131951
#        151094
#        173526
#        192920
#        209813
#
# Disc length: 2980 seconds
#
# Revision: 1
# Processed by: cddbd v1.5.2PL0 Copyright (c) Steve Scherf et al.
# Submitted via: ExactAudioCopy v0.95a4
#
DISCID=a40ba20c
DTITLE=Highland Zack - D'r Schwob
DYEAR=2011
DGENRE=Schwoba Rock
TTITLE0=Auf em Land
TTITLE1=D'r Engel
TTITLE2=D'r Schwob
TTITLE3=Haischreck
TTITLE4=I sag jo nix
TTITLE5=Manchmol
TTITLE6=Mitloid
TTITLE7=Rock'n Roll Debb
TTITLE8=Streik
TTITLE9=Superstarboogie
TTITLE10=Sexmachine
TTITLE11=I möcht di han
EXTD=Year: 2011\n\n\n\n\n\n                                           
EXTD=     www.highlandzack.de
EXTT0=
EXTT1=
EXTT2=
EXTT3=
EXTT4=
EXTT5=
EXTT6=
EXTT7=
EXTT8=
EXTT9=
EXTT10=
EXTT11=
PLAYORDER=
